<svg xmlns="http://www.w3.org/2000/svg" width="32" height="32" viewBox="0 0 500 500">
  <path fill="#7c4dff" d="M213.5 78.5c-11.8 1.7-19.8 4.2-31 9.5-30.2 14.5-50.1 39.9-57.6 73.5-.9 3.7-1.4 12-1.3 22 0 13.3.5 17.5 2.4 25 3.5 13.7 9.5 26.6 17.5 37.3 14.7 19.8 36 33.8 61 40.2 15.1 3.9 37.1 3.2 53-1.7 32.4-10.1 58.1-35 69-66.8.9-2.8 2.3-7.3 3.1-10 1.7-5.8 3.2-37.5 1.8-37.5-.5 0-4.3 3.5-8.5 7.8l-7.6 7.7-.5 8c-1.6 23.8-16.8 48.7-38.7 63.3-14.1 9.5-26.7 13.8-42.6 14.8-20.7 1.3-39.3-4.1-56.2-16.1-2.3-1.7-4.2-3.2-4.3-3.5 0-.3 1.5-1.5 3.3-2.8 1.7-1.2 4.8-3.7 6.8-5.5 2.1-1.7 4.5-3.9 5.6-4.7 4.9-4 19-15.7 20.7-17.2 1-1 2.2-1.6 2.5-1.4 2 1.3 38.5 18.6 40.2 19.1 2.3.8 1.6 1.5 42.9-41.5 39.4-41 56.3-58 57.5-58 .6 0 2.6 1.6 4.5 3.5s4.2 3.5 5.1 3.5c1.8 0 2.1-1.2 5-17.5.6-3.3 1.5-7.9 2-10.2 1.1-5.2 1.2-11 0-11.7-1.4-.9-36.9 11.4-37.5 13-.3.9.9 2.4 3.4 4 2.2 1.5 4 3.1 4 3.6s-1.9 2.8-4.2 5.2c-2.4 2.3-8.8 9-14.3 14.7-21.7 22.7-52.6 54.9-61.1 63.6l-8.9 9.3-7.5-3.6c-7.4-3.6-13.9-6.6-26.6-12.4-3.7-1.7-7.3-3-8-2.8-.7.2-11.6 8.9-24.3 19.4l-22.9 19.2-1.9-2.2c-19.5-22.6-24.9-59.5-13.1-89 10.1-25.3 32.6-45.1 59.3-52.2 10-2.7 34.1-2.7 44 0 24.4 6.6 44.9 22.9 56.1 44.4 2 4 4 7.5 4.4 7.7.4.2 3.4-2.4 6.8-5.9l6-6.3-2.8-5.2c-7.3-13.3-21.8-29.2-33.7-36.8-21.7-13.9-49-20.2-72.8-16.8z"/>
  <path fill="#7c4dff" d="M264.6 130.6c-1.4 1.3-1.6 5.9-1.6 35v33.5l13.5-13.8 13.4-13.8.1-19.7c0-16.6-.2-19.9-1.6-21.2-1.2-1.3-3.8-1.6-11.9-1.6-8.1 0-10.7.3-11.9 1.6zM227.8 162.1c-1.6.9-1.8 3-1.8 20.7v19.7l9.6 4.5c13.2 6.1 14.4 6.5 15.5 4.9.5-.8.9-11.6.9-24.2 0-28 .6-26.7-13.2-26.7-5.1 0-10.1.5-11 1.1zM188 189c-.6 1.2-.9 6.2-.8 12l.3 10 2.5-2.2c1.4-1.3 4.5-3.9 7-5.8s5.1-4 5.8-4.7c2.8-2.7 4.9-3.2 8.3-2.3 1.9.6 3.5 1 3.6 1 .8 0-1-8.5-1.9-9.2-.7-.4-6.3-.8-12.5-.8-10.2 0-11.3.2-12.3 2zM153.4 210.5c-1.6 2.5-1.5 2.8 2 9.8 1.9 4 4.4 8.2 5.3 9.4l1.8 2.2 7.3-6c7.1-6 7.2-6.1 7.2-10.8 0-2.6-.5-5.2-1.2-5.9-.8-.8-4.7-1.2-11-1.2-9.3 0-9.8.1-11.4 2.5zM275.7 227.2l-12.6 13.3-.1 8.2c0 4.6.2 8.3.5 8.3 2.6 0 15.9-9.7 22.4-16.4l4.4-4.4-.7-10.8c-.4-6-.9-11-1-11.2-.2-.1-6 5.7-12.9 13zM199.3 238.1c-11.1 9.2-12.3 10.5-12.3 13.4 0 3 .4 3.4 7 6.4 7.3 3.2 18.7 6.7 19.5 6 .2-.3.5-8.3.6-17.9.1-13.9-.2-17.6-1.3-17.8-.7-.1-6.8 4.3-13.5 9.9zM226 250.5v15.6l6.3-.6c5.7-.6 13.6-2 18-3.2 1.5-.4 1.7-1.5 1.5-8-.2-5.5-.7-7.8-1.8-8.4-3.6-2-22.5-10.9-23.2-10.9-.5 0-.8 7-.8 15.5zM303.3 260.5c-2.9 2.9-5.3 5.7-5.3 6.3 0 .7 3.1 4.4 6.9 8.4 6.7 6.9 6.9 7.2 5.4 9.5-1.1 1.6-1.3 3-.7 4.2 1.4 2.9 61.6 64.1 64.6 65.7 9.4 4.9 22.8-4 22.8-15.1 0-2-.5-4.6-1.1-5.8-1.9-3.9-64.3-65.7-66.2-65.7-1 0-2.8.5-3.9 1.1-1.8 1-2.9.2-9.7-6.4l-7.6-7.4-5.2 5.2zM169.5 311.2c-8.3 3.1-12 8.8-11.3 17.5.7 8.2 5.5 12.4 17.8 15.7 8.8 2.3 12 3.7 13 5.6 3 5.5-1.3 10-9.4 10-4.1 0-6.4-.7-10.8-3.4l-5.6-3.4-3.7 3.8-3.6 3.7 3.6 3.2c5.4 4.7 10 6.3 19 6.4 8.8.2 13.4-1.1 17.8-5.2 4.1-3.7 5.7-7.3 5.7-12.8 0-9.3-4.6-13.6-18.8-17.5-8.3-2.3-13.2-5.3-13.2-8.1 0-.8.8-2.5 1.8-3.7 1.6-1.9 2.8-2.3 7.8-2.2 3.2 0 7.7.8 9.9 1.8l4 1.6 3.2-3.8c1.8-2 3.3-4.1 3.3-4.4 0-.4-2.4-1.8-5.2-3-6.1-2.7-20.3-3.7-25.3-1.8zM277.9 311.4c-9.1 2.9-14.9 9.1-17.5 18.9-4.2 15.6 2 31.8 14.4 37.8 5.9 2.8 18.6 3.1 24.4.5 5.8-2.5 10.9-7.6 13.6-13.6 3.4-7.6 3.6-21.1.3-28.5-5.8-13.2-21-19.7-35.2-15.1zm19.5 14c3.4 3.4 4.6 5.5 5.5 9.7 3 14.1-5.3 26-17.3 24.7-8.9-1-14.1-8.1-14-19.3.1-12.7 5.8-19.5 16.2-19.5 4.9 0 5.6.3 9.6 4.4zM212 340.5V370h40v-10.7l-14 .4-14 .3v-14.9l11.3-.3 11.2-.3.3-5.3.3-5.2H224v-13h28v-10h-40v29.5z"/>
</svg>
